<svg width="49" height="48" viewBox="0 0 49 48" fill="none" xmlns="http://www.w3.org/2000/svg">
<g clip-path="url(#clip0_1066_504)">
<path d="M48.3818 23.9184C48.3818 10.9287 37.8515 0.398438 24.8618 0.398438C11.8721 0.398438 1.3418 10.9287 1.3418 23.9184C1.3418 36.9082 11.8721 47.4384 24.8618 47.4384C37.8515 47.4384 48.3818 36.9082 48.3818 23.9184Z" fill="#FF6767"/>
<path fill-rule="evenodd" clip-rule="evenodd" d="M28.5768 15.4019C27.8215 15.446 27.4439 15.468 27.0899 15.5685C26.776 15.6575 26.4768 15.7919 26.2016 15.9672C25.8913 16.1649 25.6239 16.4323 25.0888 16.9673L19.4607 22.5955C19.2465 22.8097 19.1394 22.9168 19.0558 23.0143C17.9835 24.2644 17.9754 26.1075 19.0367 27.367C19.1195 27.4652 19.2257 27.5732 19.438 27.7893C19.465 27.8167 19.4784 27.8305 19.4907 27.8411C19.6478 27.9781 19.8815 27.9791 20.0398 27.8435C20.0521 27.833 20.0657 27.8194 20.0929 27.7922L22.2839 25.6011C22.53 25.3551 22.9289 25.3551 23.1749 25.6011C23.421 25.8472 23.421 26.2461 23.1749 26.4921L20.9839 28.6831C20.9567 28.7103 20.9431 28.7239 20.9325 28.7363C20.797 28.8946 20.798 29.1283 20.9349 29.2854C20.9456 29.2976 20.9593 29.3111 20.9867 29.3381C21.2029 29.5505 21.3111 29.6567 21.4093 29.7395C22.6687 30.8007 24.5117 30.7927 25.7618 29.7205C25.8594 29.6368 25.9665 29.5297 26.1808 29.3154L31.8252 23.671C32.3543 23.1419 32.6188 22.8774 32.8151 22.5707C32.9893 22.2988 33.1233 22.0032 33.2131 21.6931C33.3143 21.3433 33.3389 20.97 33.3882 20.2235L33.4255 19.6579C33.5293 18.0831 33.5813 17.2957 33.3007 16.7039C33.0545 16.1843 32.6379 15.7645 32.1201 15.5143C31.5305 15.2294 30.7427 15.2754 29.1671 15.3674L28.5768 15.4019ZM29.0571 21.4007C29.0571 22.3286 28.3049 23.0807 27.3771 23.0807C26.4492 23.0807 25.6971 22.3286 25.6971 21.4007C25.6971 20.4729 26.4492 19.7207 27.3771 19.7207C28.3049 19.7207 29.0571 20.4729 29.0571 21.4007Z" fill="white"/>
<path d="M16.42 21.528C15.9537 21.2159 15.7205 21.0599 15.6211 20.8548C15.534 20.6749 15.5139 20.4698 15.5643 20.2763C15.6219 20.0558 15.8203 19.8574 16.2171 19.4606L16.6403 19.0375C17.3551 18.3227 17.7124 17.9654 18.1271 17.736C18.6258 17.4603 19.1864 17.3158 19.7562 17.3164C20.2301 17.3168 20.7157 17.457 21.6868 17.7375C22.0015 17.8284 22.1589 17.8738 22.2384 17.9602C22.3338 18.0637 22.3709 18.208 22.3375 18.3446C22.3095 18.4587 22.1937 18.5745 21.9621 18.8062L18.4999 22.2684C18.3608 22.4074 18.2914 22.4769 18.2095 22.5089C18.1374 22.5371 18.0587 22.5449 17.9825 22.5312C17.8959 22.5157 17.8143 22.461 17.651 22.3517L16.42 21.528Z" fill="white"/>
<path d="M26.8424 30.6792C26.733 30.5158 26.6784 30.4341 26.6628 30.3476C26.6492 30.2713 26.6568 30.1928 26.6851 30.1206C26.7171 30.0388 26.7866 29.9692 26.9256 29.8303L30.388 26.368C30.6196 26.1363 30.7354 26.0205 30.8495 25.9925C30.986 25.9591 31.1304 25.9963 31.2338 26.0916C31.3202 26.1711 31.3657 26.3284 31.4566 26.6432C31.7373 27.6146 31.8777 28.1004 31.8781 28.5744C31.8787 29.1442 31.7343 29.7048 31.4586 30.2034C31.2292 30.6183 30.8717 30.9758 30.1567 31.6908L29.7339 32.1136C29.3372 32.5104 29.1388 32.7087 28.9183 32.7663C28.7248 32.8168 28.5197 32.7967 28.3398 32.7096C28.1347 32.6102 27.9787 32.3771 27.6666 31.9108L26.8424 30.6792Z" fill="white"/>
</g>
<defs>
<clipPath id="clip0_1066_504">
<rect width="48" height="48" fill="white" transform="translate(0.941406)"/>
</clipPath>
</defs>
</svg>
