<svg width="64" height="64" viewBox="0 0 64 64" fill="none" xmlns="http://www.w3.org/2000/svg">
<rect width="64" height="64" rx="32" fill="#FFF1E0"/>
<path d="M55.7787 31.9186C55.7787 18.7087 45.0699 8 31.86 8C18.6501 8 7.94141 18.7087 7.94141 31.9186C7.94141 45.1285 18.6501 55.8373 31.86 55.8373C45.0699 55.8373 55.7787 45.1285 55.7787 31.9186Z" fill="#EFBF92"/>
<path d="M39.1783 27.9391C39.5854 29.2952 40.006 30.648 40.4399 31.9977C40.5848 32.4474 40.4422 32.8102 39.8718 32.6932C36.8806 32.0835 33.803 31.5468 30.7393 31.4234C30.6972 31.422 30.6696 31.4023 30.6565 31.3644C30.6163 31.2441 30.5841 31.0778 30.5565 30.9919C29.8726 28.8587 29.1649 26.7323 28.4335 24.6126C28.422 24.5797 28.4312 24.5529 28.4611 24.5321C30.944 22.7728 33.3925 20.4972 35.4522 18.4814C35.4776 18.457 35.5108 18.4411 35.5465 18.4363C35.8279 18.3998 36.0134 18.515 36.1031 18.7819C36.5723 20.1702 37.0462 21.5574 37.5246 22.9435C37.5368 22.9778 37.5621 22.995 37.6005 22.995C38.7789 22.9929 39.6334 23.4154 40.1639 24.2627C40.9643 25.5411 40.5538 27.0686 39.2151 27.849C39.1791 27.8704 39.1668 27.9005 39.1783 27.9391Z" fill="white"/>
<path d="M41.8988 20.6071C44.6496 21.9051 45.6057 24.8743 44.2428 27.448C44.1048 27.7086 43.895 27.7771 43.6134 27.6535L43.5046 27.6066C43.461 27.5875 43.422 27.5604 43.3899 27.5268C43.3579 27.4932 43.3335 27.4539 43.3182 27.4112C43.3029 27.3685 43.297 27.3233 43.3008 27.2784C43.3047 27.2334 43.3182 27.1897 43.3406 27.1497C44.542 25.0217 43.7678 22.6122 41.541 21.4203C41.2794 21.2803 41.2192 21.0863 41.3604 20.8383L41.4082 20.7535C41.4531 20.6739 41.5297 20.614 41.6214 20.5866C41.7132 20.5592 41.8128 20.5666 41.8988 20.6071Z" fill="white"/>
<path d="M41.6267 25.7952C42.033 24.917 41.8878 24.1945 41.1912 23.6275C41.0389 23.5043 40.7493 23.4182 40.6293 23.2486C40.4165 22.9504 40.8292 22.5881 41.2172 22.7586C42.6867 23.4033 43.0682 24.8438 42.3885 26.1102C42.351 26.1794 42.2847 26.234 42.2026 26.2632C42.1205 26.2923 42.0287 26.2939 41.9455 26.2677L41.859 26.2408C41.8092 26.2251 41.7636 26.201 41.7249 26.1699C41.6861 26.1389 41.655 26.1015 41.6333 26.06C41.6117 26.0185 41.5999 25.9736 41.5988 25.9282C41.5977 25.8827 41.6071 25.8375 41.6267 25.7952Z" fill="white"/>
<path d="M28.231 32.5853L28.5512 33.0642C28.5571 33.073 28.5608 33.083 28.5621 33.0935C28.5634 33.1039 28.5622 33.1146 28.5585 33.1246C28.5549 33.1346 28.5489 33.1436 28.5412 33.151C28.5334 33.1584 28.524 33.164 28.5137 33.1672C27.7193 33.4189 26.7449 33.6206 26.0725 34.126C26.0404 34.1501 26.0133 34.1455 25.9912 34.1122L25.5147 33.3881C25.4962 33.3598 25.4705 33.3505 25.4376 33.3605L23.9205 33.8213C23.7974 33.8588 23.6643 33.8465 23.5503 33.787C23.4364 33.7275 23.3508 33.6257 23.3123 33.5038L21.308 27.1765C21.2891 27.1166 21.2824 27.0537 21.2881 26.9913C21.2938 26.9289 21.3119 26.8682 21.3414 26.8128C21.3708 26.7573 21.4111 26.7082 21.4597 26.6682C21.5084 26.6282 21.5645 26.5981 21.6249 26.5797L27.2642 24.8766C27.3863 24.8393 27.5183 24.8518 27.6313 24.9113C27.7443 24.9708 27.8291 25.0725 27.867 25.194C28.5158 27.283 29.1682 29.3854 29.8242 31.5012C29.9213 31.8148 29.8064 32.0222 29.4795 32.1234C29.0726 32.2494 28.6661 32.3765 28.26 32.5046C28.2143 32.5188 28.2046 32.5457 28.231 32.5853Z" fill="white"/>
<path d="M22.714 33.3324C22.714 33.333 22.7138 33.3335 22.7133 33.3339C22.7128 33.3343 22.7122 33.3345 22.7116 33.3345L22.7068 33.3366C22.3723 33.4259 22.0188 33.4513 21.6663 33.4112C21.3139 33.3712 20.9694 33.2665 20.6526 33.1031C20.3358 32.9397 20.0529 32.7209 19.82 32.459C19.5871 32.1972 19.4088 31.8976 19.2952 31.5772L19.2856 31.551C19.1719 31.2306 19.1253 30.8957 19.1483 30.5655C19.1713 30.2352 19.2636 29.9161 19.4198 29.6263C19.5761 29.3366 19.7932 29.0818 20.0588 28.8767C20.3244 28.6716 20.6333 28.52 20.9679 28.4308L20.9739 28.4297C20.9744 28.4297 20.9748 28.4297 20.9753 28.4299C20.9757 28.4301 20.9761 28.4304 20.9763 28.4308L22.714 33.3324Z" fill="white"/>
<path d="M31.1401 35.3228C31.7231 35.1606 32.5911 34.8038 33.0864 34.8446C33.9554 34.9155 34.4157 35.929 33.9806 36.6727C33.9623 36.7035 33.9656 36.7318 33.9905 36.7576C34.42 37.2053 34.4913 37.7069 34.2042 38.2621C34.1881 38.2937 34.1917 38.3227 34.2151 38.3492C34.6242 38.8034 34.7017 39.3157 34.4474 39.886C34.4321 39.9204 34.4383 39.9505 34.4661 39.9763C35.22 40.6888 34.8102 41.7635 33.8732 42.0429C31.2833 42.8152 28.6949 43.5922 26.108 44.3739C26.07 44.3861 26.051 44.4115 26.051 44.4502C26.051 44.7146 25.9359 44.8811 25.7058 44.9499C25.0022 45.1606 24.314 45.3623 23.6412 45.555C23.5246 45.5883 23.3994 45.5754 23.2925 45.5191C23.1855 45.4628 23.1053 45.3677 23.0691 45.2541L21.3092 39.7484C21.2693 39.623 21.2815 39.4872 21.3433 39.3706C21.4051 39.2541 21.5114 39.1662 21.639 39.1262C22.2644 38.9306 22.9018 38.73 23.5513 38.5244C23.788 38.4502 23.925 38.4749 24.0916 38.6383C24.1029 38.6497 24.118 38.6567 24.1343 38.6581C24.1506 38.6595 24.1669 38.6551 24.1803 38.6458C25.1283 37.9967 25.9359 37.1401 26.2592 36.045C26.4597 35.3669 26.7326 35.0542 27.4153 34.8446C28.1627 34.6153 28.9104 34.3882 29.6585 34.1633C29.7922 34.1231 29.9789 34.1475 30.2185 34.2363C30.7131 34.4197 30.9977 34.7676 31.0722 35.2799C31.078 35.3193 31.1007 35.3336 31.1401 35.3228Z" fill="white"/>
</svg>
