<svg width="236" height="38" viewBox="0 0 236 38" fill="none" xmlns="http://www.w3.org/2000/svg">
<g clip-path="url(#clip0_1120_19)">
<path d="M99.0535 14.8485V8.51562H79.8428V37.3014H87.0749V26.733H98.8272V20.4001H87.0749V14.8485H99.0535Z" fill="white"/>
<path d="M106.49 14.9295C108.704 14.9295 110.557 13.2434 110.557 11.2284C110.557 9.21337 108.704 7.52734 106.49 7.52734C104.274 7.52734 102.421 9.21337 102.421 11.2284C102.421 13.2434 104.274 14.9295 106.49 14.9295ZM103.099 37.3003H109.879V16.7389H103.099V37.3003Z" fill="white"/>
<path d="M114.843 37.3009H121.623V7.28125H114.843V37.3009Z" fill="white"/>
<path d="M132.639 29.4879H148.686C148.867 28.7065 148.956 27.8841 148.956 27.0205C148.956 20.811 144.075 16.1641 137.476 16.1641C130.334 16.1641 125.452 20.8932 125.452 27.0205C125.452 33.1477 130.244 37.8771 137.972 37.8771C142.267 37.8771 145.611 36.4375 147.827 33.6414L142.403 30.8038C141.498 31.7084 139.916 32.3665 138.063 32.3665C135.577 32.3665 133.498 31.6263 132.639 29.4879ZM132.504 24.8822C133.136 22.7848 134.854 21.6335 137.43 21.6335C139.464 21.6335 141.498 22.497 142.222 24.8822H132.504Z" fill="white"/>
<path d="M164.572 7.9375C157.068 7.9375 153.588 10.9806 153.588 16.7378H150.56V22.6595H153.588V37.2991H160.368V22.6595H163.667V16.7378H160.368C160.368 14.3527 162.04 13.2835 164.572 13.2835C165.068 13.2835 165.611 13.2835 166.153 13.3245V37.2991H172.933V8.92442C170.312 8.38986 167.781 7.9375 164.572 7.9375Z" fill="white"/>
<path d="M188.767 37.8771C195.412 37.8771 200.745 33.1477 200.745 27.0205C200.745 20.8932 195.412 16.1641 188.767 16.1641C182.122 16.1641 176.789 20.8932 176.789 27.0205C176.789 33.1477 182.122 37.8771 188.767 37.8771ZM188.767 31.8731C185.829 31.8731 183.569 29.9403 183.569 27.0205C183.569 24.1008 185.829 22.168 188.767 22.168C191.705 22.168 193.965 24.1008 193.965 27.0205C193.965 29.9403 191.705 31.8731 188.767 31.8731Z" fill="white"/>
<path d="M228.559 16.7383L225.304 27.7592L221.779 16.7383H215.451L211.925 27.7592L208.671 16.7383H201.438L208.671 37.2998H214.998L218.615 26.3199L222.231 37.2998H228.559L235.791 16.7383H228.559Z" fill="white"/>
<path fill-rule="evenodd" clip-rule="evenodd" d="M51.4818 12.6497C52.2991 16.8529 52.9089 23.4123 49.2474 24.9697C40.3668 29.2635 34.25 34.1107 32.1814 38H35.7161H60.4981L61.809 37.6957C63.4687 37.315 64.4729 36.9094 65.9091 36.0344C68.3498 34.5632 70.2883 32.116 71.0833 29.5036C71.4457 28.3369 71.4457 24.8497 71.0973 23.6703C69.8699 19.6377 65.9651 16.2392 61.5859 15.4149L60.7491 15.2628L60.4424 14.1215C59.6057 11.0526 57.1092 8.26282 53.9016 6.81717C53.2789 6.53524 52.6263 6.30385 51.9545 6.12297C51.6593 8.15309 50.8813 9.83921 49.2683 10.5344C38.6915 15.0926 19.5094 26.3277 23.9037 38H25.3176C25.0278 36.8929 24.9813 35.7336 25.2203 34.6022C25.5595 32.9963 26.2347 31.3349 27.1785 30.031C30.3549 24.4469 38.8498 20.0879 44.8995 16.9838C48.6689 15.0496 51.4887 13.6025 51.4818 12.6497ZM36.6503 2.4295C37.7645 3.10829 39.2568 4.35946 40.2735 5.43109C34.0865 8.82825 27.1297 12.7102 24.4642 15.7551C15.7731 25.6835 19.9263 33.4273 23.4592 38H10.9338L9.62278 37.6957C8.03295 37.3277 7.04275 36.9347 5.71788 36.1611C3.04025 34.5889 1.03201 32.0144 0.292868 29.2373C-0.0976226 27.7663 -0.0976226 25.4076 0.292868 23.9239C1.38066 19.8026 5.25768 16.328 9.81809 15.4149L10.613 15.2628V14.3117C10.613 12.4222 11.4776 9.64503 12.6631 7.71751C15.0618 3.81175 19.399 0.971179 24.2383 0.146909C25.0053 0.020098 26.0373 -0.0179451 27.7667 0.00741702C29.8447 0.04546 30.4025 0.096184 31.5321 0.362488C33.3311 0.806325 35.172 1.54183 36.6503 2.4295Z" fill="white"/>
</g>
<defs>
<clipPath id="clip0_1120_19">
<rect width="236" height="38" fill="white"/>
</clipPath>
</defs>
</svg>
