<svg width="31" height="30" viewBox="0 0 31 30" fill="none" xmlns="http://www.w3.org/2000/svg">
<rect x="0.941406" width="30" height="30" rx="8" fill="#303030"/>
<g clip-path="url(#clip0_1496_831)">
<mask id="mask0_1496_831" style="mask-type:luminance" maskUnits="userSpaceOnUse" x="7" y="7" width="17" height="16">
<path d="M23.9414 7H7.94141V23H23.9414V7Z" fill="white"/>
</mask>
<g mask="url(#mask0_1496_831)">
<path fill-rule="evenodd" clip-rule="evenodd" d="M12.6535 7.0732C9.69709 7.20826 8.14398 8.87186 8.01507 11.7122C7.91685 13.8626 7.91685 16.1377 8.01507 18.2881C8.14398 21.1285 9.69709 22.7921 12.6535 22.9271C14.8045 23.0247 17.0789 23.0247 19.2299 22.9271C22.0703 22.797 23.7333 21.2463 23.8683 18.2881C23.966 16.137 23.966 13.8639 23.8683 11.7122C23.7358 8.81722 22.1249 7.2058 19.2299 7.0732C17.0789 6.9756 14.8045 6.9756 12.6535 7.0732ZM19.1642 8.50906C21.3122 8.60666 22.3355 9.62938 22.4325 11.7779C22.5295 13.8835 22.5295 16.1168 22.4325 18.2224C22.3324 20.4329 21.2563 21.3961 19.1642 21.4913C17.0574 21.5876 14.826 21.5876 12.7192 21.4913C10.6265 21.3961 9.55099 20.4329 9.45031 18.2224C9.35393 16.1168 9.35393 13.8835 9.45031 11.7779C9.54546 9.68462 10.5092 8.60973 12.7192 8.50906C14.826 8.41268 17.0574 8.41268 19.1642 8.50906ZM15.9414 17.6582C14.4736 17.6582 13.2833 16.4685 13.2833 15.0002C13.2833 13.5318 14.4736 12.3421 15.9414 12.3421C17.4092 12.3421 18.6001 13.5318 18.6001 15.0002C18.6001 16.4685 17.4098 17.6582 15.9414 17.6582ZM15.9414 10.905C13.6805 10.905 11.8463 12.7386 11.8463 15.0002C11.8463 17.2617 13.6799 19.0953 15.9414 19.0953C18.2029 19.0953 20.0365 17.2617 20.0365 15.0002C20.0365 12.7386 18.2035 10.905 15.9414 10.905ZM21.1556 10.7429C21.1556 11.2715 20.7272 11.7006 20.1986 11.7006C19.6701 11.7006 19.2416 11.2721 19.2416 10.7436C19.2416 10.215 19.6695 9.78653 20.1986 9.78653C20.7278 9.78653 21.1556 10.215 21.1556 10.7429Z" fill="white"/>
</g>
</g>
<defs>
<clipPath id="clip0_1496_831">
<rect width="16" height="16" fill="white" transform="translate(7.94141 7)"/>
</clipPath>
</defs>
</svg>
