<svg width="31" height="30" viewBox="0 0 31 30" fill="none" xmlns="http://www.w3.org/2000/svg">
<rect x="0.941406" width="30" height="30" rx="8" fill="#303030"/>
<g clip-path="url(#clip0_1496_841)">
<mask id="mask0_1496_841" style="mask-type:luminance" maskUnits="userSpaceOnUse" x="8" y="8" width="15" height="14">
<path d="M22.9414 8H8.94141V22H22.9414V8Z" fill="white"/>
</mask>
<g mask="url(#mask0_1496_841)">
<path d="M12.2004 12.5H9.38987C9.26513 12.5 9.16406 12.6011 9.16406 12.7258V21.7548C9.16406 21.8796 9.26513 21.9806 9.38987 21.9806H12.2004C12.3251 21.9806 12.4262 21.8796 12.4262 21.7548V12.7258C12.4262 12.6011 12.3251 12.5 12.2004 12.5Z" fill="white"/>
<path d="M10.796 8.01562C9.77337 8.01562 8.94141 8.84668 8.94141 9.86819C8.94141 10.8901 9.77337 11.7215 10.796 11.7215C11.8178 11.7215 12.6491 10.8901 12.6491 9.86819C12.6491 8.84668 11.8178 8.01562 10.796 8.01562Z" fill="white"/>
<path d="M19.3489 12.2812C18.2201 12.2812 17.3856 12.7665 16.8795 13.3179V12.7315C16.8795 12.6068 16.7784 12.5056 16.6537 12.5056H13.9621C13.8374 12.5056 13.7363 12.6068 13.7363 12.7315V21.7605C13.7363 21.8853 13.8374 21.9862 13.9621 21.9862H16.7665C16.8912 21.9862 16.9923 21.8853 16.9923 21.7605V17.2932C16.9923 15.7878 17.4012 15.2014 18.4506 15.2014C19.5935 15.2014 19.6843 16.1415 19.6843 17.3706V21.7605C19.6843 21.8852 19.7854 21.9863 19.9101 21.9863H22.7155C22.8403 21.9863 22.9413 21.8852 22.9413 21.7605V16.8079C22.9413 14.5695 22.5145 12.2812 19.3489 12.2812Z" fill="white"/>
</g>
</g>
<defs>
<clipPath id="clip0_1496_841">
<rect width="14" height="14" fill="white" transform="translate(8.94141 8)"/>
</clipPath>
</defs>
</svg>
