<svg width="346" height="53" viewBox="0 0 346 53" fill="none" xmlns="http://www.w3.org/2000/svg">
<path fill-rule="evenodd" clip-rule="evenodd" d="M23.5416 1.12994C24.5209 0.855753 26.0877 0.50322 27.0278 0.34654C31.3757 -0.436866 37.1729 0.150688 41.1684 1.67833C48.3757 4.4986 54.1729 10.4917 56.5231 17.464C57.3065 19.8142 57.3849 20.9501 57.5416 32.3878C57.6982 46.4108 57.6591 46.7634 55.0347 47.6251C53.3503 48.2127 47.2398 47.9776 46.6131 47.3509C46.2997 47.0376 46.4564 46.5283 47.1614 45.5883C47.7098 44.8832 48.7283 43.0422 49.4333 41.5537C50.6476 38.9684 50.7259 38.4984 50.8435 33.7196C51.0393 27.0215 51.0785 26.8648 52.5669 26.8648H53.7421L53.6637 24.0054C53.507 18.4432 51.7444 14.2912 47.8665 10.4133C43.2052 5.79122 36.977 3.32348 30.5139 3.5585C28.6729 3.59767 26.9494 3.79352 26.7144 3.95022C26.4794 4.06773 25.8135 4.26358 25.3043 4.38109C22.0923 4.96865 15.9818 8.80733 13.6315 11.7059C10.8113 15.1529 9.08779 20.3626 9.04862 25.3764C9.04862 26.7081 9.12696 26.8257 10.3412 26.9432L11.5947 27.0607L11.8297 32.3487C12.1431 39.3993 12.6915 41.3187 15.5509 45.3532C16.491 46.685 16.726 47.2726 16.3735 47.5076C15.5117 48.0168 9.2053 48.1343 7.71683 47.6251C5.2491 46.8025 5.13159 46.2933 5.13159 34.1505C5.13159 26.3164 5.28827 22.5953 5.71915 20.3234C6.81591 14.6045 10.5371 8.61148 15.2375 5.1645C16.8435 3.98939 20.9956 1.67833 21.5831 1.59999C21.6557 1.59999 22.0126 1.51022 22.5058 1.38616C22.8107 1.30949 23.1676 1.21972 23.5416 1.12994ZM0.117511 37.3628C0.235022 34.3467 0.313362 34.1117 1.21428 33.6416C3.09445 32.7015 3.17279 32.819 3.17279 37.402C3.17279 39.7913 3.01611 41.789 2.85943 41.9065C2.66358 42.0241 1.95851 41.7499 1.25345 41.319L0 40.5747L0.117511 37.3628ZM59.9697 37.4406C59.9697 42.0625 60.1264 42.3367 61.8499 41.1224C62.6333 40.6132 62.7116 40.1823 62.7116 37.4406C62.7116 34.6987 62.6333 34.2678 61.8499 33.7586C60.1264 32.5443 59.9697 32.8185 59.9697 37.4406ZM40.5924 42.1106C40.5179 42.3609 40.5003 42.6277 40.5454 42.8925L42.0076 50.8033C42.1306 51.4739 41.8415 52.1527 41.2669 52.5401C41.0518 52.6937 40.8094 52.7959 40.5579 52.8452C40.1517 52.9248 39.7216 52.8672 39.3428 52.6686L32.0574 48.9545C31.8042 48.8225 31.5226 48.7516 31.235 48.7433H30.789C30.6344 48.7661 30.4829 48.8142 30.3452 48.8887L23.0582 52.6204C22.6978 52.7971 22.2901 52.8597 21.8899 52.7971C20.916 52.6173 20.2665 51.7105 20.4257 50.7536L21.8899 42.8427C21.9871 42.2654 21.7913 41.6782 21.3651 41.2681L15.4253 35.6406C14.9288 35.1693 14.7559 34.4621 14.9831 33.8236C15.2035 33.1867 15.7658 32.7223 16.4451 32.6175L24.6204 31.4585C25.2424 31.3957 25.7886 31.0258 26.0679 30.4792L29.6704 23.2595C29.7561 23.0988 29.8663 22.9508 29.9994 22.8253L30.1479 22.7129C30.2251 22.6291 30.3139 22.5602 30.4125 22.5036L30.5916 22.4394L30.8716 22.3269H31.5639C32.1821 22.3897 32.7268 22.7515 33.0114 23.2916L36.6614 30.4792C36.9246 31.0048 37.4364 31.3701 38.027 31.4585L46.2023 32.6175C46.8933 32.7143 47.4707 33.1806 47.6986 33.8236C47.9145 34.4686 47.7284 35.1758 47.2219 35.6406L41.0695 41.3327C40.8407 41.5497 40.6778 41.8192 40.5924 42.1106ZM27.0272 37.6033C27.0272 38.6851 26.1505 39.5618 25.0687 39.5618C23.987 39.5618 23.1102 38.6851 23.1102 37.6033C23.1102 36.5215 23.987 35.6448 25.0687 35.6448C26.1505 35.6448 27.0272 36.5215 27.0272 37.6033ZM31.336 39.5618C32.4177 39.5618 33.2945 38.6851 33.2945 37.6033C33.2945 36.5215 32.4177 35.6448 31.336 35.6448C30.2542 35.6448 29.3775 36.5215 29.3775 37.6033C29.3775 38.6851 30.2542 39.5618 31.336 39.5618ZM39.5618 37.6033C39.5618 38.6851 38.685 39.5618 37.6032 39.5618C36.5214 39.5618 35.6447 38.6851 35.6447 37.6033C35.6447 36.5215 36.5214 35.6448 37.6032 35.6448C38.685 35.6448 39.5618 36.5215 39.5618 37.6033Z" fill="white"/>
<path d="M87.1371 42.5907C93.8822 42.5907 98.6748 39.0406 98.6748 33.0499C98.6748 26.4823 93.3941 24.8404 88.6903 23.4204C83.8533 21.956 83.0989 20.9797 83.0989 19.5597C83.0989 18.3172 84.2083 17.2078 86.4271 17.2078C89.2672 17.2078 90.7316 18.5834 91.7966 20.8022L97.7873 17.2965C95.5241 12.7258 91.5303 10.2852 86.4271 10.2852C81.0576 10.2852 75.9988 13.7465 75.9988 19.7372C75.9988 25.6835 80.5251 27.9023 85.1402 29.1892C89.7997 30.4761 91.5747 31.2305 91.5747 33.1387C91.5747 34.3368 90.7316 35.6681 87.359 35.6681C83.8533 35.6681 81.9452 33.9374 80.8358 31.3636L74.7119 34.9137C76.4426 39.4844 80.6139 42.5907 87.1371 42.5907Z" fill="white"/>
<path d="M117.222 19.7816V31.8961C117.222 35.0468 115.536 36.4668 113.095 36.4668C110.965 36.4668 109.235 35.1799 109.235 32.4287V19.7816H102.578V33.4049C102.578 39.3956 106.394 42.5907 110.876 42.5907C113.805 42.5907 116.024 41.5257 117.222 39.8838V41.9694H123.878V19.7816H117.222Z" fill="white"/>
<path d="M140.298 42.5907C144.647 42.5907 148.419 40.3275 150.327 36.8662L144.514 33.538C143.804 35.0912 142.162 36.0231 140.209 36.0231C137.325 36.0231 135.195 33.9374 135.195 30.8755C135.195 27.8136 137.325 25.7279 140.209 25.7279C142.162 25.7279 143.759 26.6598 144.514 28.213L150.327 24.8404C148.419 21.4235 144.602 19.1603 140.298 19.1603C133.553 19.1603 128.538 24.2635 128.538 30.8755C128.538 37.4875 133.553 42.5907 140.298 42.5907Z" fill="white"/>
<path d="M164.11 42.5907C168.459 42.5907 172.231 40.3275 174.139 36.8662L168.326 33.538C167.616 35.0912 165.974 36.0231 164.021 36.0231C161.137 36.0231 159.007 33.9374 159.007 30.8755C159.007 27.8136 161.137 25.7279 164.021 25.7279C165.974 25.7279 167.571 26.6598 168.326 28.213L174.139 24.8404C172.231 21.4235 168.414 19.1603 164.11 19.1603C157.365 19.1603 152.35 24.2635 152.35 30.8755C152.35 37.4875 157.365 42.5907 164.11 42.5907Z" fill="white"/>
<path d="M183.218 33.538H198.972C199.149 32.6949 199.238 31.8074 199.238 30.8755C199.238 24.1748 194.445 19.1603 187.966 19.1603C180.955 19.1603 176.162 24.2635 176.162 30.8755C176.162 37.4875 180.866 42.5907 188.455 42.5907C192.67 42.5907 195.954 41.0375 198.128 38.02L192.803 34.9581C191.916 35.9343 190.363 36.6443 188.543 36.6443C186.103 36.6443 184.061 35.8456 183.218 33.538ZM183.085 28.568C183.706 26.3048 185.393 25.0623 187.922 25.0623C189.919 25.0623 191.916 25.9942 192.626 28.568H183.085Z" fill="white"/>
<path d="M209.335 26.2604C209.335 25.4617 210.045 25.0179 211.199 25.0179C212.664 25.0179 213.551 25.8167 214.172 26.9704L219.852 23.9085C217.989 20.7578 214.794 19.1603 211.199 19.1603C206.584 19.1603 202.502 21.601 202.502 26.4379C202.502 34.1149 213.418 32.828 213.418 35.2687C213.418 36.1562 212.619 36.6443 211.022 36.6443C209.069 36.6443 207.827 35.7125 207.25 34.0262L201.481 37.31C203.212 40.9044 206.584 42.5907 211.022 42.5907C215.814 42.5907 220.252 40.4163 220.252 35.3131C220.252 27.1036 209.335 28.7898 209.335 26.2604Z" fill="white"/>
<path d="M229.637 26.2604C229.637 25.4617 230.347 25.0179 231.501 25.0179C232.965 25.0179 233.853 25.8167 234.474 26.9704L240.154 23.9085C238.291 20.7578 235.096 19.1603 231.501 19.1603C226.886 19.1603 222.803 21.601 222.803 26.4379C222.803 34.1149 233.72 32.828 233.72 35.2687C233.72 36.1562 232.921 36.6443 231.324 36.6443C229.371 36.6443 228.129 35.7125 227.552 34.0262L221.783 37.31C223.513 40.9044 226.886 42.5907 231.324 42.5907C236.116 42.5907 240.554 40.4163 240.554 35.3131C240.554 27.1036 229.637 28.7898 229.637 26.2604Z" fill="white"/>
<path d="M257.628 10.9064H245.203V41.9694H257.628C266.193 41.9694 272.716 35.2243 272.716 26.4379C272.716 17.6515 266.193 10.9064 257.628 10.9064ZM257.628 35.1356H252.303V17.7403H257.628C262.51 17.7403 265.882 21.1128 265.882 26.4379C265.882 31.763 262.51 35.1356 257.628 35.1356Z" fill="white"/>
<path d="M283.32 33.538H299.074C299.251 32.6949 299.34 31.8074 299.34 30.8755C299.34 24.1748 294.547 19.1603 288.068 19.1603C281.057 19.1603 276.264 24.2635 276.264 30.8755C276.264 37.4875 280.968 42.5907 288.557 42.5907C292.772 42.5907 296.056 41.0375 298.23 38.02L292.905 34.9581C292.018 35.9343 290.465 36.6443 288.645 36.6443C286.205 36.6443 284.163 35.8456 283.32 33.538ZM283.187 28.568C283.808 26.3048 285.495 25.0623 288.024 25.0623C290.021 25.0623 292.018 25.9942 292.728 28.568H283.187Z" fill="white"/>
<path d="M309.437 26.2604C309.437 25.4617 310.147 25.0179 311.301 25.0179C312.766 25.0179 313.653 25.8167 314.274 26.9704L319.954 23.9085C318.091 20.7578 314.896 19.1603 311.301 19.1603C306.686 19.1603 302.604 21.601 302.604 26.4379C302.604 34.1149 313.52 32.828 313.52 35.2687C313.52 36.1562 312.721 36.6443 311.124 36.6443C309.171 36.6443 307.929 35.7125 307.352 34.0262L301.583 37.31C303.314 40.9044 306.686 42.5907 311.124 42.5907C315.916 42.5907 320.354 40.4163 320.354 35.3131C320.354 27.1036 309.437 28.7898 309.437 26.2604Z" fill="white"/>
<path d="M345.865 41.9694L337.567 30.8755L345.643 19.7816H337.877L331.221 29.4999V10.9064H324.565V41.9694H331.221V32.1624L338.321 41.9694H345.865Z" fill="white"/>
</svg>
