<svg width="65" height="64" viewBox="0 0 65 64" fill="none" xmlns="http://www.w3.org/2000/svg">
<g id="Frame 1000000975">
<rect id="div.icon-embed-medium:outline" x="0.941406" width="64" height="64" rx="32" fill="#FAE9FC"/>
<path id="Vector" d="M56.7201 31.9186C56.7201 18.7087 46.0114 8 32.8015 8C19.5916 8 8.88281 18.7087 8.88281 31.9186C8.88281 45.1285 19.5916 55.8373 32.8015 55.8373C46.0114 55.8373 56.7201 45.1285 56.7201 31.9186Z" fill="#E592EF"/>
<path id="Vector_2" d="M35.8435 25.4655C34.8774 23.5333 34.3943 22.5671 33.7625 22.2484C33.1576 21.9432 32.4438 21.9432 31.8388 22.2484C31.207 22.5671 30.7239 23.5333 29.7577 25.4655C29.4956 25.9899 29.3645 26.2521 29.1858 26.4571C28.9555 26.7213 28.6637 26.9247 28.3363 27.0495C28.0821 27.1463 27.7961 27.1781 27.224 27.2416C25.2319 27.463 24.2358 27.5736 23.7448 27.979C23.1113 28.502 22.8339 29.3422 23.0315 30.1396C23.1847 30.7576 23.9303 31.4498 25.4214 32.8344C25.8858 33.2658 26.1181 33.4815 26.2698 33.7269C26.5048 34.1069 26.6146 34.5511 26.5839 34.9967C26.5641 35.2847 26.4607 35.5793 26.254 36.1686C25.5819 38.0839 25.2459 39.0416 25.3725 39.63C25.5699 40.5471 26.3426 41.228 27.2773 41.3084C27.877 41.36 28.7848 40.9061 30.6002 39.9984L31.2726 39.6622C31.8329 39.382 32.113 39.242 32.4068 39.1869C32.6671 39.1381 32.9342 39.1381 33.1944 39.1869C33.4883 39.242 33.7685 39.382 34.3288 39.6622L35.001 39.9984C36.8166 40.9061 37.7242 41.36 38.324 41.3084C39.2586 41.228 40.0313 40.5471 40.2287 39.63C40.3554 39.0416 40.0194 38.0839 39.3474 36.1686C39.1406 35.5793 39.0372 35.2847 39.0173 34.9967C38.9866 34.5511 39.0965 34.1069 39.3314 33.7269C39.4832 33.4815 39.7154 33.2658 40.18 32.8344C41.6711 31.4498 42.4166 30.7576 42.5697 30.1396C42.7674 29.3422 42.4901 28.502 41.8565 27.979C41.3655 27.5736 40.3694 27.463 38.3772 27.2416C37.8052 27.1781 37.5191 27.1463 37.265 27.0495C36.9375 26.9247 36.6458 26.7213 36.4155 26.4571C36.2368 26.2521 36.1058 25.9899 35.8435 25.4655Z" fill="white"/>
</g>
</svg>
